<svg width="22" height="21" viewBox="0 0 22 21" fill="none" xmlns="http://www.w3.org/2000/svg">
<path fill-rule="evenodd" clip-rule="evenodd" d="M11 19C17.0751 19 22 14.7467 22 9.5C22 4.25329 17.0751 0 11 0C4.92487 0 0 4.25329 0 9.5C0 11.7821 0.931742 13.8763 2.48461 15.5142C2.48327 15.5371 2.48192 15.5603 2.48055 15.5838L2.29903 18.6985C2.25426 19.4667 2.23188 19.8507 2.47571 20.0069C2.71954 20.163 3.06631 19.9866 3.75985 19.6338L6.57208 18.2035C6.57378 18.2026 6.57549 18.2017 6.57719 18.2009C7.93061 18.7148 9.42674 19 11 19Z" fill="#F47C6B"/>
</svg>
