<svg width="22" height="21" viewBox="0 0 22 21" fill="none" xmlns="http://www.w3.org/2000/svg">
<mask id="path-1-inside-1_10_180" fill="white">
<path fill-rule="evenodd" clip-rule="evenodd" d="M11 19.064C17.0751 19.064 22 14.8107 22 9.56403C22 4.31732 17.0751 0.0640259 11 0.0640259C4.92487 0.0640259 0 4.31732 0 9.56403C0 11.8461 0.931742 13.9403 2.48461 15.5783C2.48327 15.6011 2.48192 15.6243 2.48055 15.6478L2.29903 18.7626C2.25426 19.5307 2.23188 19.9148 2.47571 20.0709C2.71954 20.227 3.06631 20.0506 3.75985 19.6979L6.57208 18.2675C6.57378 18.2666 6.57549 18.2658 6.57719 18.2649C7.93061 18.7788 9.42674 19.064 11 19.064Z"/>
</mask>
<path d="M2.48461 15.5783L3.4829 15.6368L3.50823 15.2045L3.21032 14.8903L2.48461 15.5783ZM2.48055 15.6478L3.47886 15.706L2.48055 15.6478ZM2.29903 18.7626L1.30072 18.7044L2.29903 18.7626ZM2.47571 20.0709L1.93649 20.9131L1.9365 20.9131L2.47571 20.0709ZM3.75985 19.6979L3.3065 18.8065H3.30649L3.75985 19.6979ZM6.57208 18.2675L6.1189 17.3761L6.11872 17.3762L6.57208 18.2675ZM6.57719 18.2649L6.93215 17.33L6.51839 17.1729L6.1239 17.3735L6.57719 18.2649ZM21 9.56403C21 14.1259 16.6655 18.064 11 18.064V20.064C17.4848 20.064 23 15.4956 23 9.56403H21ZM11 1.06403C16.6655 1.06403 21 5.00218 21 9.56403H23C23 3.63246 17.4848 -0.935974 11 -0.935974V1.06403ZM1 9.56403C1 5.00218 5.33452 1.06403 11 1.06403V-0.935974C4.51521 -0.935974 -1 3.63246 -1 9.56403H1ZM3.21032 14.8903C1.81395 13.4174 1 11.563 1 9.56403H-1C-1 12.1293 0.0495308 14.4632 1.7589 16.2663L3.21032 14.8903ZM3.47886 15.706C3.48023 15.6824 3.48157 15.6594 3.4829 15.6368L1.48632 15.5198C1.48497 15.5428 1.48361 15.5661 1.48224 15.5897L3.47886 15.706ZM3.29733 18.8207L3.47886 15.706L1.48224 15.5897L1.30072 18.7044L3.29733 18.8207ZM3.01492 19.2287C3.13278 19.3042 3.21044 19.4085 3.25082 19.4982C3.28261 19.5688 3.27945 19.6041 3.27501 19.5554C3.27087 19.51 3.26884 19.4324 3.27297 19.3004C3.27704 19.1702 3.2859 19.0168 3.29733 18.8207L1.30072 18.7044C1.28033 19.0543 1.25553 19.4328 1.28327 19.737C1.31195 20.0516 1.42027 20.5825 1.93649 20.9131L3.01492 19.2287ZM3.30649 18.8065C3.12957 18.8965 2.99066 18.9671 2.87117 19.024C2.75011 19.0816 2.67587 19.112 2.6299 19.1275C2.5809 19.144 2.60781 19.1282 2.68049 19.1281C2.77313 19.128 2.89755 19.1536 3.01492 19.2287L1.9365 20.9131C2.44739 21.2402 2.97203 21.1227 3.26837 21.0229C3.55835 20.9252 3.89616 20.7505 4.2132 20.5892L3.30649 18.8065ZM6.11872 17.3762L3.3065 18.8065L4.2132 20.5892L7.02543 19.1588L6.11872 17.3762ZM6.1239 17.3735C6.12009 17.3755 6.1217 17.3747 6.1189 17.3761L7.02526 19.1589C7.02635 19.1584 7.0274 19.1578 7.02824 19.1574C7.02915 19.1569 7.02983 19.1566 7.03048 19.1563L6.1239 17.3735ZM11 18.064C9.5477 18.064 8.17188 17.8007 6.93215 17.33L6.22223 19.1998C7.68935 19.7568 9.30577 20.064 11 20.064V18.064Z" fill="black" mask="url(#path-1-inside-1_10_180)"/>
</svg>
