<svg width="23" height="22" viewBox="0 0 23 22" fill="none" xmlns="http://www.w3.org/2000/svg">
<path fill-rule="evenodd" clip-rule="evenodd" d="M22 11C22 16.4814 17.3413 21 11.5 21C5.65865 21 1 16.4814 1 11C1 5.51858 5.65865 1 11.5 1C17.3413 1 22 5.51858 22 11ZM23 11C23 17.0751 17.8513 22 11.5 22C5.14873 22 0 17.0751 0 11C0 4.92487 5.14873 0 11.5 0C17.8513 0 23 4.92487 23 11ZM9.85914 10.2381L14.914 7.56779L12.304 12.2869L7.24909 14.9571L9.85914 10.2381ZM16.276 7.1714C16.6127 6.56267 15.9516 5.88874 15.3365 6.21366L9.31295 9.39563C9.19253 9.45924 9.09328 9.5566 9.02736 9.67578L5.88709 15.3535C5.55041 15.9623 6.21152 16.6362 6.8266 16.3113L12.8502 13.1293C12.9706 13.0657 13.0698 12.9683 13.1358 12.8491L16.276 7.1714Z" fill="black"/>
</svg>
