<svg width="23" height="20" viewBox="0 0 23 20" fill="none" xmlns="http://www.w3.org/2000/svg">
<path d="M9.5 10.5L9.21939 10.1624C8.26487 9.01413 7.70256 7.59069 7.6146 6.10008L7.56308 5.22699C7.52175 4.52652 7.66481 3.82745 7.97799 3.19952L8.15028 2.85407C8.5701 2.01234 9.34055 1.39927 10.2551 1.17923V1.17923C10.7447 1.06143 11.2553 1.06143 11.7449 1.17923V1.17923C12.6594 1.39927 13.4299 2.01234 13.8497 2.85407L14.0311 3.21768C14.3386 3.83431 14.484 4.51913 14.4535 5.20754L14.3937 6.55966C14.3405 7.76268 13.9778 8.93162 13.3407 9.9535L13 10.5" stroke="white" stroke-linecap="round"/>
<path d="M9.5 10.5V12V12.3979C9.5 12.7683 9.29525 13.1084 8.96789 13.2817L1.53211 17.2183C1.20475 17.3916 1 17.7317 1 18.1021V18.5C1 19.0523 1.44772 19.5 2 19.5H20C20.5523 19.5 21 19.0523 21 18.5V18.0848C21 17.7236 20.8051 17.3904 20.4903 17.2133L13.5097 13.2867C13.1949 13.1096 13 12.7764 13 12.4152V10.5" stroke="white"/>
<rect x="20" y="11" width="3" height="1" fill="white"/>
<rect x="18" y="9" width="5" height="1" fill="white"/>
<rect x="17" y="7" width="6" height="1" fill="white"/>
</svg>
