<svg width="22" height="20" viewBox="0 0 22 20" fill="none" xmlns="http://www.w3.org/2000/svg">
<path d="M9.5 10L9.21939 9.66242C8.26487 8.51413 7.70256 7.09069 7.6146 5.60008L7.56308 4.72699C7.52175 4.02652 7.66481 3.32745 7.97799 2.69952L8.15028 2.35407C8.5701 1.51234 9.34055 0.899266 10.2551 0.679232V0.679232C10.7447 0.561425 11.2553 0.561425 11.7449 0.679232V0.679232C12.6594 0.899266 13.4299 1.51234 13.8497 2.35407L14.0311 2.71768C14.3386 3.33431 14.484 4.01913 14.4535 4.70754L14.3937 6.05966C14.3405 7.26268 13.9778 8.43162 13.3407 9.4535L13 10" stroke="white" stroke-linecap="round"/>
<path d="M9.5 10V11.5V11.8979C9.5 12.2683 9.29525 12.6084 8.96789 12.7817L1.53211 16.7183C1.20475 16.8916 1 17.2317 1 17.6021V18C1 18.5523 1.44772 19 2 19H20C20.5523 19 21 18.5523 21 18V17.5848C21 17.2236 20.8051 16.8904 20.4903 16.7133L13.5097 12.7867C13.1949 12.6096 13 12.2764 13 11.9152V10" stroke="white"/>
</svg>
