<svg width="22" height="20" viewBox="0 0 22 20" fill="none" xmlns="http://www.w3.org/2000/svg">
<path d="M9.54081 9.33618L10.605 10.34C10.8105 10.5338 11.0823 10.6418 11.3648 10.6418C11.717 10.6418 12.0482 10.4742 12.2569 10.1905L13.0353 9.13193C13.3417 8.71526 13.5575 8.23905 13.6687 7.73395L14.1537 5.53139C14.3301 4.73058 14.2501 3.89459 13.925 3.14178L13.5772 2.45032C13.2799 1.85909 12.7581 1.41155 12.1285 1.20764C11.9931 1.16378 11.8541 1.13168 11.7132 1.1117L11.5762 1.0923C11.1473 1.03151 10.7103 1.06558 10.2959 1.19212C9.3256 1.48848 8.57457 2.26104 8.30577 3.23937L8.20793 3.59547C8.07089 4.09425 8.04198 4.61655 8.12313 5.12741L8.5 7.5C8.65474 8.20267 9.01741 8.84248 9.54081 9.33618Z" fill="#F47C6B" stroke="#F47C6B" stroke-linecap="round"/>
<path d="M1.49821 17.2362L9.21678 13.1499C9.40098 13.0524 9.55011 12.8998 9.64332 12.7134L9.89443 12.2111C9.96385 12.0723 10 11.9192 10 11.7639V10C10 9.44772 10.4477 9 11 9H11.5C12.0523 9 12.5 9.44772 12.5 10V11V11.7639C12.5 11.9192 12.5361 12.0723 12.6056 12.2111L12.8629 12.7259C12.9523 12.9045 13.093 13.0523 13.2671 13.1502L20.5176 17.2286C20.8156 17.3963 21 17.7116 21 18.0535C21 18.5763 20.5763 19 20.0535 19H1.93628C1.41919 19 1 18.5808 1 18.0637C1 17.7169 1.1917 17.3985 1.49821 17.2362Z" fill="#F47C6B" stroke="#F47C6B"/>
</svg>
