<svg width="20" height="19" viewBox="0 0 20 19" fill="none" xmlns="http://www.w3.org/2000/svg">
<path fill-rule="evenodd" clip-rule="evenodd" d="M16.4545 8.18182C16.4545 12.0884 13.0567 15.3636 8.72727 15.3636C4.39784 15.3636 1 12.0884 1 8.18182C1 4.27522 4.39784 1 8.72727 1C13.0567 1 16.4545 4.27522 16.4545 8.18182ZM14.5717 14.2582C13.0246 15.5669 10.9752 16.3636 8.72727 16.3636C3.90733 16.3636 0 12.7005 0 8.18182C0 3.66312 3.90733 0 8.72727 0C13.5472 0 17.4545 3.66312 17.4545 8.18182C17.4545 10.253 16.6336 12.1445 15.2802 13.5858C15.3061 13.6033 15.3306 13.6235 15.3536 13.6464L19.3536 17.6464C19.5488 17.8417 19.5488 18.1583 19.3536 18.3536C19.1583 18.5488 18.8417 18.5488 18.6464 18.3536L14.6464 14.3536C14.6171 14.3242 14.5922 14.2922 14.5717 14.2582Z" fill="black"/>
</svg>
