<svg width="20" height="20" viewBox="0 0 20 20" fill="none" xmlns="http://www.w3.org/2000/svg">
<path fill-rule="evenodd" clip-rule="evenodd" d="M19 10C19 14.9706 14.9706 19 10 19C5.02944 19 1 14.9706 1 10C1 5.02944 5.02944 1 10 1C14.9706 1 19 5.02944 19 10ZM20 10C20 15.5228 15.5228 20 10 20C4.47715 20 0 15.5228 0 10C0 4.47715 4.47715 0 10 0C15.5228 0 20 4.47715 20 10ZM10 5C10.2761 5 10.5 5.22386 10.5 5.5V9H14.5C14.7761 9 15 9.22386 15 9.5C15 9.77614 14.7761 10 14.5 10H10.5V14.5C10.5 14.7761 10.2761 15 10 15C9.72386 15 9.5 14.7761 9.5 14.5V10H5.5C5.22386 10 5 9.77614 5 9.5C5 9.22386 5.22386 9 5.5 9H9.5V5.5C9.5 5.22386 9.72386 5 10 5Z" fill="black"/>
</svg>
